<?xml version="1.0" encoding="UTF-8"?>
<svg id="Layer_1" data-name="Layer 1" xmlns="http://www.w3.org/2000/svg" viewBox="0 0 43.713 28">
  <defs>
    <style>
      .cls-1 {
        fill: #5382a1;
      }

      .cls-1, .cls-2, .cls-3 {
        stroke-width: 0px;
      }

      .cls-2 {
        fill: #ffa518;
      }

      .cls-3 {
        fill: #fff;
      }
    </style>
  </defs>
  <g shape-rendering="crispEdges">
    <rect class="cls-3" width="43.713" height="28"/>
  </g>
  <g>
    <path class="cls-1" d="M27.106,5.397c-.152,0-.256.014-.365.042v.019h.019c.069.139.194.235.284.36.069.145.131.282.199.42l.021-.014c.124-.09.185-.228.185-.441-.055-.062-.062-.124-.104-.185-.055-.09-.164-.132-.24-.208v.007Z"/>
    <path class="cls-1" d="M11.014,15.539l-1.786,5.385h-.007l-1.765-5.385h-1.523c-.289,2.282-.47,4.723-.545,7.323h1.117c.026-1.952.116-3.895.261-5.841h.014l1.848,5.841h.937l1.862-5.841h.014c.207,1.945.323,3.888.358,5.841h1.227c-.055-2.213-.242-4.654-.565-7.323h-1.447Z"/>
    <path class="cls-1" d="M16.075,22.07c.034-.277-.057-.773-.277-1.483l-.958-3.124h-1.205l1.345,4.178c.199.628.302,1.041.302,1.248,0,.297-.131.56-.392.801-.214.192-.496.297-.856.297-.192,0-.365-.014-.51-.035v.655c.296.118.545.18.752.18.759,0,1.454-.477,2.097-1.421.814-1.227,1.476-3.2,1.972-5.902h-1.165c-.208,1.663-.574,3.2-1.103,4.607Z"/>
    <polygon class="cls-2" points="32.345 15.539 31.18 15.539 31.18 22.862 34.662 22.862 34.662 21.959 32.345 21.959 32.345 15.539"/>
    <path class="cls-2" d="M30.264,23.041l-1.345-.662c.116-.102.235-.207.337-.33.574-.669.856-1.668.856-2.986,0-2.42-.944-3.632-2.847-3.632-.939,0-1.663.311-2.187.923-.572.676-.854,1.663-.854,2.972,0,1.289.247,2.235.759,2.833.461.545,1.158.814,2.095.814.351,0,.669-.041.958-.131l1.758,1.02.477-.821h-.007ZM27.194,22.063c-.586,0-1.013-.221-1.288-.662v-.007c-.297-.477-.448-1.241-.448-2.296,0-1.841.565-2.764,1.682-2.764.586,0,1.02.221,1.297.662.297.475.441,1.241.441,2.282,0,1.853-.56,2.785-1.684,2.785Z"/>
    <path class="cls-2" d="M22.858,19.29s-1.047-.598-1.571-.883c-.565-.323-.875-.695-.875-1.13,0-.27.117-.517.323-.69.201-.185.491-.275.87-.275.482.007.964.109,1.405.304l.284-.628c-.56-.365-1.179-.544-1.855-.544-.662,0-1.2.185-1.613.551-.415.365-.621.842-.621,1.435,0,.717.275,1.151.835,1.559,0,0,1.027.586,1.537.868.558.316.861.681.861,1.123.007.318-.145.621-.399.814-.249.194-.593.289-1.034.289-.477,0-1.001-.145-1.58-.434l-.311.628c.676.455,1.366.683,2.083.683.766,0,1.379-.201,1.834-.593.455-.401.683-.911.683-1.532h.007c0-.71-.282-1.137-.863-1.544Z"/>
    <path class="cls-1" d="M25.209,5.763c.064.152.083.311.145.469.139.387.277.821.462,1.186.097.185.201.379.325.544.069.097.192.145.221.304-.125.18-.131.441-.206.662-.318,1.001-.194,2.242.261,2.979.138.221.477.709.93.517.394-.159.311-.662.422-1.103.027-.104.007-.173.062-.249v.021c.124.247.247.489.365.738.275.434.752.883,1.144,1.186.214.159.387.434.65.529v-.026h-.021c-.055-.076-.131-.118-.207-.18-.166-.159-.318-.337-.463-.524-.372-.51-.704-1.054-.987-1.613-.145-.282-.268-.579-.385-.854-.049-.104-.049-.261-.139-.318-.138.194-.33.365-.427.6-.166.38-.185.849-.247,1.338-.035.007-.021,0-.035.021-.282-.069-.379-.365-.489-.614-.263-.627-.304-1.634-.076-2.358.062-.185.323-.771.221-.951-.056-.166-.228-.261-.325-.401-.124-.178-.235-.365-.323-.565-.208-.496-.318-1.041-.545-1.537-.104-.228-.289-.47-.441-.683-.173-.235-.351-.399-.489-.681-.042-.097-.104-.263-.035-.365.021-.071.055-.097.124-.118.118-.097.441.028.56.083.33.131.6.256.875.441.124.083.261.256.42.297h.187c.282.062.6.021.861.097.469.152.897.372,1.276.612,1.172.745,2.123,1.786,2.757,3.02.111.206.152.394.249.607.185.434.42.875.605,1.296.187.422.365.842.628,1.193.131.18.669.275.904.372.178.083.448.159.605.256.311.178.607.392.89.598.145.097.586.318.614.498-.709-.014-1.255.055-1.717.247-.131.056-.344.056-.365.221.076.076.083.187.145.289.111.173.289.415.463.538.187.145.372.282.565.408.346.214.731.337,1.07.551.192.123.392.282.586.413.097.071.159.187.282.228v-.027c-.062-.076-.083-.194-.138-.282-.09-.09-.18-.166-.268-.256-.256-.337-.567-.641-.918-.89-.282-.192-.904-.468-1.02-.793l-.014-.014c.192-.021.42-.09.607-.145.304-.076.579-.062.89-.138.138-.035.282-.083.42-.123v-.083c-.159-.159-.275-.372-.441-.517-.462-.408-.944-.766-1.461-1.089-.275-.18-.628-.297-.925-.448-.102-.049-.282-.076-.344-.166-.159-.192-.249-.448-.365-.683-.254-.503-.496-1.013-.724-1.537-.159-.344-.256-.688-.448-1.006-.911-1.511-1.903-2.42-3.419-3.309-.332-.187-.725-.27-1.138-.365-.221-.014-.441-.028-.662-.035-.145-.062-.282-.235-.406-.311-.505-.316-1.807-1.006-2.18-.095-.235.572.351,1.137.56,1.433.15.201.344.434.447.662Z"/>
  </g>
</svg>
