<?xml version="1.0" encoding="utf-8"?>
<!-- Generator: Adobe Illustrator 28.3.0, SVG Export Plug-In . SVG Version: 6.00 Build 0)  -->
<!DOCTYPE svg PUBLIC "-//W3C//DTD SVG 1.1//EN" "http://www.w3.org/Graphics/SVG/1.1/DTD/svg11.dtd" [
	<!ENTITY ns_extend "http://ns.adobe.com/Extensibility/1.0/">
	<!ENTITY ns_ai "http://ns.adobe.com/AdobeIllustrator/10.0/">
	<!ENTITY ns_graphs "http://ns.adobe.com/Graphs/1.0/">
	<!ENTITY ns_vars "http://ns.adobe.com/Variables/1.0/">
	<!ENTITY ns_imrep "http://ns.adobe.com/ImageReplacement/1.0/">
	<!ENTITY ns_sfw "http://ns.adobe.com/SaveForWeb/1.0/">
	<!ENTITY ns_custom "http://ns.adobe.com/GenericCustomNamespace/1.0/">
	<!ENTITY ns_adobe_xpath "http://ns.adobe.com/XPath/1.0/">
]>
<svg version="1.1" id="Layer_1" xmlns:x="&ns_extend;" xmlns:i="&ns_ai;" xmlns:graph="&ns_graphs;"
	 xmlns="http://www.w3.org/2000/svg" xmlns:xlink="http://www.w3.org/1999/xlink" x="0px" y="0px" viewBox="0 0 70.8 28"
	 style="enable-background:new 0 0 70.8 28;" xml:space="preserve">
<style type="text/css">
	.st0{fill:#4F5B93;}
	.st1{enable-background:new    ;}
	.st2{fill:#FFFFFF;}
</style>
<metadata>
	<sfw  xmlns="&ns_sfw;">
		<slices></slices>
		<sliceSourceBounds  bottomLeftOrigin="true" height="28" width="70.8" x="0" y="0"></sliceSourceBounds>
	</sfw>
</metadata>
<g shape-rendering="crispEdges">
	<rect class="st0" width="70.8" height="28"/>
</g>
<g text-rendering="geometricPrecision">
	<g class="st1">
		<path class="st2" d="M45.4,11.9c0,0.3-0.1,0.6-0.2,1c-0.1,0.3-0.3,0.6-0.5,0.8c-0.3,0.3-0.6,0.5-1,0.6s-0.8,0.2-1.3,0.2h-1.2v2.4
			h-1.9V9.6h3.1c0.5,0,0.9,0,1.2,0.1s0.6,0.2,0.8,0.4c0.3,0.2,0.5,0.4,0.7,0.7S45.4,11.5,45.4,11.9z M43.5,12c0-0.2-0.1-0.4-0.2-0.5
			c-0.1-0.1-0.2-0.3-0.4-0.3c-0.2-0.1-0.4-0.1-0.6-0.1s-0.4,0-0.7,0h-0.3v2.2h0.5c0.3,0,0.6,0,0.8-0.1s0.4-0.1,0.5-0.2
			c0.1-0.1,0.2-0.2,0.3-0.4S43.5,12.2,43.5,12z"/>
		<path class="st2" d="M54.7,16.9h-1.9v-3.2H50v3.2h-1.9V9.6H50v2.7h2.8V9.6h1.9V16.9z"/>
		<path class="st2" d="M63.4,11.9c0,0.3-0.1,0.6-0.2,1c-0.1,0.3-0.3,0.6-0.5,0.8c-0.3,0.3-0.6,0.5-1,0.6s-0.8,0.2-1.3,0.2h-1.2v2.4
			h-1.9V9.6h3.1c0.5,0,0.9,0,1.2,0.1s0.6,0.2,0.8,0.4c0.3,0.2,0.5,0.4,0.7,0.7S63.4,11.5,63.4,11.9z M61.5,12c0-0.2-0.1-0.4-0.2-0.5
			c-0.1-0.1-0.2-0.3-0.4-0.3c-0.2-0.1-0.4-0.1-0.6-0.1s-0.4,0-0.7,0h-0.3v2.2h0.5c0.3,0,0.6,0,0.8-0.1s0.4-0.1,0.5-0.2
			c0.1-0.1,0.2-0.2,0.3-0.4S61.5,12.2,61.5,12z"/>
	</g>
	<path class="st2" d="M13.8,11.4h-0.9L12.4,14h0.8c0.6,0,1-0.1,1.2-0.3c0.3-0.2,0.5-0.6,0.5-1c0.1-0.5,0-0.8-0.1-1
		C14.7,11.5,14.3,11.4,13.8,11.4z M18.8,6.9c-6.6,0-12,2.8-12,6.3s5.4,6.3,12,6.3s12-2.8,12-6.3S25.4,6.9,18.8,6.9z M15.5,14.3
		c-0.3,0.2-0.6,0.4-0.9,0.5C14.3,15,13.9,15,13.4,15h-1.2l-0.3,1.7h-1.4l1.2-6.3h2.6c0.8,0,1.4,0.2,1.7,0.6c0.4,0.4,0.5,1,0.3,1.7
		c-0.1,0.3-0.2,0.6-0.3,0.8C16,13.9,15.8,14.1,15.5,14.3z M19.6,15l0.5-2.8c0.1-0.3,0-0.5-0.1-0.6c-0.1-0.1-0.3-0.2-0.7-0.2h-1.1
		L17.6,15h-1.4l1.2-6.3h1.4l-0.3,1.7h1.2c0.8,0,1.3,0.1,1.6,0.4c0.3,0.3,0.4,0.7,0.3,1.3L20.9,15H19.6z M27.1,12.8
		c-0.1,0.3-0.2,0.6-0.3,0.8c-0.1,0.3-0.3,0.5-0.6,0.7c-0.3,0.2-0.6,0.4-0.9,0.5C25,15,24.6,15,24.1,15h-1.2l-0.3,1.7h-1.4l1.2-6.3
		h2.6c0.8,0,1.4,0.2,1.7,0.6C27.2,11.5,27.3,12,27.1,12.8z M24.5,11.4h-0.9L23.1,14h0.8c0.6,0,1-0.1,1.2-0.3c0.3-0.2,0.5-0.6,0.5-1
		c0.1-0.5,0-0.8-0.1-1C25.4,11.5,25.1,11.4,24.5,11.4z"/>
</g>
</svg>
